C:\GBW_MyPrograms\PredSim_2D_BCN\PredSimResults\BCN_CP1\BCN_CP1_job30.mot
version=1
nRows=9
nColumns=29
inDegrees=yes
endheader
                time	         pelvis_tilt	           pelvis_tx	           pelvis_ty	       hip_flexion_l	       hip_flexion_r	        knee_angle_l	        knee_angle_r	       ankle_angle_l	       ankle_angle_r	    lumbar_extension	hamstrings_r/activation	bifemsh_r/activation	glut_max_r/activation	iliopsoas_r/activation	rect_fem_r/activation	  vasti_r/activation	gastroc_r/activation	 soleus_r/activation	tib_ant_r/activation	hamstrings_l/activation	bifemsh_l/activation	glut_max_l/activation	iliopsoas_l/activation	rect_fem_l/activation	  vasti_l/activation	gastroc_l/activation	 soleus_l/activation	tib_ant_l/activation	
          0.00000000	         -8.61221388	          0.00000000	          0.90516115	        -11.06609472	         20.39423748	        -14.34749391	          0.48456803	         -0.09398902	         -4.50911455	          1.28588213	          0.15765915	          0.08090473	          0.16756571	          0.05836199	          0.06869762	          0.04999999	          0.12341949	          0.09368232	          0.24802082	          0.04999999	          0.05860787	          0.05000000	          0.53196958	          0.09438732	          0.06159168	          0.25560071	          0.25168150	          0.04999999	
          0.01032944	         -8.56648230	          0.01562120	          0.90339634	        -10.69438850	         20.35395194	        -16.63497138	         -0.63414560	         -1.40270543	         -4.60954574	          1.69848384	          0.14111641	          0.06902211	          0.19308699	          0.05000004	          0.05860785	          0.05860786	          0.11590697	          0.07992298	          0.29094182	          0.04999999	          0.05000000	          0.04999999	          0.49532715	          0.08052444	          0.05254557	          0.21806006	          0.21471647	          0.04999999	
          0.02065889	         -8.50961215	          0.03149104	          0.90149915	        -10.02867512	         20.20322318	        -19.42670833	         -2.24344902	         -2.98135430	         -4.38892294	          2.12994927	          0.12039032	          0.14472003	          0.22253963	          0.05860786	          0.04999999	          0.04999999	          0.11887506	          0.09427653	          0.25922551	          0.04999999	          0.04999999	          0.05000000	          0.42257734	          0.06869764	          0.05000012	          0.18603308	          0.18318058	          0.04999999	
          0.03098833	         -8.44650451	          0.04737542	          0.89965683	         -9.06266066	         19.91853272	        -22.66516890	         -3.85308162	         -4.89329926	         -3.48547910	          2.55640069	          0.10270832	          0.12346468	          0.28149981	          0.04999999	          0.04999999	          0.04999999	          0.14178507	          0.15791456	          0.22115247	          0.04999999	          0.04999999	          0.04999999	          0.36051246	          0.05860786	          0.04999999	          0.15870999	          0.15627644	          0.25114669	
          0.04131778	         -8.38459840	          0.06284940	          0.89819973	         -7.84072747	         19.52578348	        -26.19348428	         -5.28295012	         -6.53368810	         -1.97070541	          2.93231640	          0.08762332	          0.10533114	          0.27617401	          0.04999999	          0.04999999	          0.04999999	          0.15891628	          0.19028188	          0.18867131	          0.05000003	          0.05000001	          0.05860786	          0.30756318	          0.04999999	          0.04999999	          0.13539989	          0.13332376	          0.21426021	
          0.05164722	         -8.32948796	          0.07764480	          0.89746496	         -6.46123768	         19.08528406	        -29.69597713	         -6.51123231	         -6.80480856	         -0.61633472	          3.23075461	          0.07475389	          0.08986092	          0.24903144	          0.04999999	          0.04999999	          0.05000000	          0.17995046	          0.23505951	          0.16096073	          0.07252545	          0.06443793	          0.04999999	          0.26239068	          0.04999999	          0.04999999	          0.11551341	          0.11374220	          0.24843705	
          0.06197666	         -8.28086965	          0.09175919	          0.89760657	         -4.97271340	         18.63700019	        -33.01274648	         -7.59072246	         -6.56758203	          0.41254132	          3.45258577	          0.06377461	          0.07666285	          0.21245564	          0.04999999	          0.04999999	          0.04999999	          0.19781742	          0.27044550	          0.13732007	          0.08275357	          0.10447854	          0.04999999	          0.22385277	          0.04999999	          0.04999999	          0.09854769	          0.09703663	          0.24985079	
          0.07230611	         -8.23631762	          0.10529268	          0.89849497	         -3.42177063	         18.17350759	        -36.06974375	         -8.52141475	         -6.14280625	          1.09792066	          3.60906247	          0.05440789	          0.09641737	          0.18125180	          0.04999999	          0.04999999	          0.04999999	          0.21229818	          0.29862571	          0.11954835	          0.09173403	          0.12858933	          0.04999999	          0.19097501	          0.04999999	          0.04999999	          0.08953938	          0.08278464	          0.23392156	
          0.08263555	         -8.19346450	          0.11836096	          0.89991562	         -1.84833281	         17.67000636	        -38.83245033	         -9.28237105	         -5.59163263	          1.49622873	          3.71292166	          0.04999999	          0.13254518	          0.15463094	          0.04999999	          0.04999999	          0.04999999	          0.22414320	          0.31904268	          0.11373731	          0.10147457	          0.15711990	          0.04999999	          0.16365713	          0.04999999	          0.04999999	          0.08405000	          0.07062587	          0.21899964	
